<mxfile host="app.diagrams.net" agent="Mozilla/5.0 (Windows NT 10.0; Win64; x64) AppleWebKit/537.36 (KHTML, like Gecko) Chrome/140.0.0.0 Safari/537.36" version="28.2.2">
  <diagram name="Page-1" id="uFgHX8l_G_6XssTV8HhN">
    <mxGraphModel dx="1892" dy="527" grid="1" gridSize="10" guides="1" tooltips="1" connect="1" arrows="1" fold="1" page="1" pageScale="1" pageWidth="850" pageHeight="1100" math="0" shadow="0">
      <root>
        <mxCell id="0" />
        <mxCell id="1" parent="0" />
        <mxCell id="T01o5Uwq3xA-ir8Dq9qK-22" style="edgeStyle=orthogonalEdgeStyle;rounded=0;orthogonalLoop=1;jettySize=auto;html=1;" edge="1" parent="1" source="T01o5Uwq3xA-ir8Dq9qK-1" target="T01o5Uwq3xA-ir8Dq9qK-10">
          <mxGeometry relative="1" as="geometry" />
        </mxCell>
        <mxCell id="T01o5Uwq3xA-ir8Dq9qK-31" value="webhook" style="edgeLabel;html=1;align=center;verticalAlign=middle;resizable=0;points=[];" vertex="1" connectable="0" parent="T01o5Uwq3xA-ir8Dq9qK-22">
          <mxGeometry x="0.136" y="-1" relative="1" as="geometry">
            <mxPoint as="offset" />
          </mxGeometry>
        </mxCell>
        <mxCell id="T01o5Uwq3xA-ir8Dq9qK-1" value="&lt;font style=&quot;font-size: 10px;&quot;&gt;&lt;b&gt;GitHub&lt;/b&gt;&lt;/font&gt;" style="dashed=0;outlineConnect=0;html=1;align=center;labelPosition=center;verticalLabelPosition=bottom;verticalAlign=top;shape=mxgraph.weblogos.github" vertex="1" parent="1">
          <mxGeometry x="-75" y="432.5" width="75" height="75" as="geometry" />
        </mxCell>
        <mxCell id="T01o5Uwq3xA-ir8Dq9qK-4" value="AWS Account" style="points=[[0,0],[0.25,0],[0.5,0],[0.75,0],[1,0],[1,0.25],[1,0.5],[1,0.75],[1,1],[0.75,1],[0.5,1],[0.25,1],[0,1],[0,0.75],[0,0.5],[0,0.25]];outlineConnect=0;gradientColor=none;html=1;whiteSpace=wrap;fontSize=12;fontStyle=0;container=1;pointerEvents=0;collapsible=0;recursiveResize=0;shape=mxgraph.aws4.group;grIcon=mxgraph.aws4.group_account;strokeColor=#CD2264;fillColor=none;verticalAlign=top;align=left;spacingLeft=30;fontColor=#CD2264;dashed=0;" vertex="1" parent="1">
          <mxGeometry x="60" y="190" width="770" height="400" as="geometry" />
        </mxCell>
        <mxCell id="T01o5Uwq3xA-ir8Dq9qK-6" value="" style="swimlane;startSize=0;" vertex="1" parent="T01o5Uwq3xA-ir8Dq9qK-4">
          <mxGeometry x="40" y="160" width="500" height="200" as="geometry">
            <mxRectangle x="120" y="380" width="50" height="40" as="alternateBounds" />
          </mxGeometry>
        </mxCell>
        <mxCell id="T01o5Uwq3xA-ir8Dq9qK-7" value="" style="sketch=0;points=[[0,0,0],[0.25,0,0],[0.5,0,0],[0.75,0,0],[1,0,0],[0,1,0],[0.25,1,0],[0.5,1,0],[0.75,1,0],[1,1,0],[0,0.25,0],[0,0.5,0],[0,0.75,0],[1,0.25,0],[1,0.5,0],[1,0.75,0]];outlineConnect=0;fontColor=#232F3E;fillColor=#C925D1;strokeColor=#ffffff;dashed=0;verticalLabelPosition=bottom;verticalAlign=top;align=center;html=1;fontSize=12;fontStyle=0;aspect=fixed;shape=mxgraph.aws4.resourceIcon;resIcon=mxgraph.aws4.codepipeline;" vertex="1" parent="T01o5Uwq3xA-ir8Dq9qK-6">
          <mxGeometry width="50" height="50" as="geometry" />
        </mxCell>
        <mxCell id="T01o5Uwq3xA-ir8Dq9qK-26" style="edgeStyle=orthogonalEdgeStyle;rounded=0;orthogonalLoop=1;jettySize=auto;html=1;" edge="1" parent="T01o5Uwq3xA-ir8Dq9qK-6" source="T01o5Uwq3xA-ir8Dq9qK-10" target="T01o5Uwq3xA-ir8Dq9qK-25">
          <mxGeometry relative="1" as="geometry" />
        </mxCell>
        <mxCell id="T01o5Uwq3xA-ir8Dq9qK-10" value="&lt;font style=&quot;font-size: 10px;&quot;&gt;&lt;b&gt;CodeBuild&lt;/b&gt;&lt;/font&gt;" style="sketch=0;points=[[0,0,0],[0.25,0,0],[0.5,0,0],[0.75,0,0],[1,0,0],[0,1,0],[0.25,1,0],[0.5,1,0],[0.75,1,0],[1,1,0],[0,0.25,0],[0,0.5,0],[0,0.75,0],[1,0.25,0],[1,0.5,0],[1,0.75,0]];outlineConnect=0;fontColor=#232F3E;fillColor=#C925D1;strokeColor=#ffffff;dashed=0;verticalLabelPosition=bottom;verticalAlign=top;align=center;html=1;fontSize=12;fontStyle=0;aspect=fixed;shape=mxgraph.aws4.resourceIcon;resIcon=mxgraph.aws4.codebuild;" vertex="1" parent="T01o5Uwq3xA-ir8Dq9qK-6">
          <mxGeometry x="50" y="81" width="78" height="78" as="geometry" />
        </mxCell>
        <mxCell id="T01o5Uwq3xA-ir8Dq9qK-11" value="&lt;font style=&quot;font-size: 10px;&quot;&gt;&lt;b&gt;CodeDeploy&lt;/b&gt;&lt;/font&gt;" style="sketch=0;points=[[0,0,0],[0.25,0,0],[0.5,0,0],[0.75,0,0],[1,0,0],[0,1,0],[0.25,1,0],[0.5,1,0],[0.75,1,0],[1,1,0],[0,0.25,0],[0,0.5,0],[0,0.75,0],[1,0.25,0],[1,0.5,0],[1,0.75,0]];outlineConnect=0;fontColor=#232F3E;fillColor=#C925D1;strokeColor=#ffffff;dashed=0;verticalLabelPosition=bottom;verticalAlign=top;align=center;html=1;fontSize=12;fontStyle=0;aspect=fixed;shape=mxgraph.aws4.resourceIcon;resIcon=mxgraph.aws4.codedeploy;" vertex="1" parent="T01o5Uwq3xA-ir8Dq9qK-6">
          <mxGeometry x="330" y="81" width="78" height="78" as="geometry" />
        </mxCell>
        <mxCell id="T01o5Uwq3xA-ir8Dq9qK-20" value="&lt;font style=&quot;font-size: 10px;&quot;&gt;&lt;b&gt;CodePipeline&lt;/b&gt;&lt;/font&gt;" style="text;html=1;align=center;verticalAlign=middle;whiteSpace=wrap;rounded=0;" vertex="1" parent="T01o5Uwq3xA-ir8Dq9qK-6">
          <mxGeometry x="230" y="10" width="60" height="30" as="geometry" />
        </mxCell>
        <mxCell id="T01o5Uwq3xA-ir8Dq9qK-25" value="&lt;font style=&quot;font-size: 10px;&quot;&gt;&lt;b&gt;Approval&lt;/b&gt;&lt;/font&gt;" style="sketch=0;outlineConnect=0;gradientColor=none;fontColor=#545B64;strokeColor=none;fillColor=#879196;dashed=0;verticalLabelPosition=bottom;verticalAlign=top;align=center;html=1;fontSize=12;fontStyle=0;aspect=fixed;shape=mxgraph.aws4.illustration_users;pointerEvents=1" vertex="1" parent="T01o5Uwq3xA-ir8Dq9qK-6">
          <mxGeometry x="210" y="90" width="60" height="60" as="geometry" />
        </mxCell>
        <mxCell id="T01o5Uwq3xA-ir8Dq9qK-27" style="edgeStyle=orthogonalEdgeStyle;rounded=0;orthogonalLoop=1;jettySize=auto;html=1;entryX=0;entryY=0.5;entryDx=0;entryDy=0;entryPerimeter=0;" edge="1" parent="T01o5Uwq3xA-ir8Dq9qK-6" source="T01o5Uwq3xA-ir8Dq9qK-25" target="T01o5Uwq3xA-ir8Dq9qK-11">
          <mxGeometry relative="1" as="geometry" />
        </mxCell>
        <mxCell id="T01o5Uwq3xA-ir8Dq9qK-14" value="&lt;font style=&quot;font-size: 10px;&quot;&gt;&lt;b&gt;ECS&lt;/b&gt;&lt;/font&gt;" style="sketch=0;points=[[0,0,0],[0.25,0,0],[0.5,0,0],[0.75,0,0],[1,0,0],[0,1,0],[0.25,1,0],[0.5,1,0],[0.75,1,0],[1,1,0],[0,0.25,0],[0,0.5,0],[0,0.75,0],[1,0.25,0],[1,0.5,0],[1,0.75,0]];outlineConnect=0;fontColor=#232F3E;fillColor=#ED7100;strokeColor=#ffffff;dashed=0;verticalLabelPosition=bottom;verticalAlign=top;align=center;html=1;fontSize=12;fontStyle=0;aspect=fixed;shape=mxgraph.aws4.resourceIcon;resIcon=mxgraph.aws4.ecs;" vertex="1" parent="T01o5Uwq3xA-ir8Dq9qK-4">
          <mxGeometry x="630" y="241" width="78" height="78" as="geometry" />
        </mxCell>
        <mxCell id="T01o5Uwq3xA-ir8Dq9qK-15" value="Amazon CloudWatch" style="sketch=0;outlineConnect=0;fontColor=#232F3E;gradientColor=none;strokeColor=#ffffff;fillColor=#232F3E;dashed=0;verticalLabelPosition=middle;verticalAlign=bottom;align=center;html=1;whiteSpace=wrap;fontSize=10;fontStyle=1;spacing=3;shape=mxgraph.aws4.productIcon;prIcon=mxgraph.aws4.cloudwatch;" vertex="1" parent="T01o5Uwq3xA-ir8Dq9qK-4">
          <mxGeometry x="325" y="30" width="80" height="110" as="geometry" />
        </mxCell>
        <mxCell id="T01o5Uwq3xA-ir8Dq9qK-17" value="AWS Key Management Service" style="sketch=0;outlineConnect=0;fontColor=#232F3E;gradientColor=none;strokeColor=#ffffff;fillColor=#232F3E;dashed=0;verticalLabelPosition=middle;verticalAlign=bottom;align=center;html=1;whiteSpace=wrap;fontSize=10;fontStyle=1;spacing=3;shape=mxgraph.aws4.productIcon;prIcon=mxgraph.aws4.key_management_service;" vertex="1" parent="T01o5Uwq3xA-ir8Dq9qK-4">
          <mxGeometry x="460" y="30" width="80" height="120" as="geometry" />
        </mxCell>
        <mxCell id="T01o5Uwq3xA-ir8Dq9qK-18" value="Amazon ECR" style="sketch=0;outlineConnect=0;fontColor=#232F3E;gradientColor=none;strokeColor=#ffffff;fillColor=#232F3E;dashed=0;verticalLabelPosition=middle;verticalAlign=bottom;align=center;html=1;whiteSpace=wrap;fontSize=10;fontStyle=1;spacing=3;shape=mxgraph.aws4.productIcon;prIcon=mxgraph.aws4.ecr;" vertex="1" parent="T01o5Uwq3xA-ir8Dq9qK-4">
          <mxGeometry x="190" y="30" width="80" height="100" as="geometry" />
        </mxCell>
        <mxCell id="T01o5Uwq3xA-ir8Dq9qK-28" style="edgeStyle=orthogonalEdgeStyle;rounded=0;orthogonalLoop=1;jettySize=auto;html=1;" edge="1" parent="T01o5Uwq3xA-ir8Dq9qK-4" source="T01o5Uwq3xA-ir8Dq9qK-11" target="T01o5Uwq3xA-ir8Dq9qK-14">
          <mxGeometry relative="1" as="geometry" />
        </mxCell>
        <mxCell id="T01o5Uwq3xA-ir8Dq9qK-33" value="blue/green deployment" style="edgeLabel;html=1;align=center;verticalAlign=middle;resizable=0;points=[];" vertex="1" connectable="0" parent="T01o5Uwq3xA-ir8Dq9qK-28">
          <mxGeometry x="-0.2176" relative="1" as="geometry">
            <mxPoint as="offset" />
          </mxGeometry>
        </mxCell>
        <mxCell id="T01o5Uwq3xA-ir8Dq9qK-29" style="edgeStyle=orthogonalEdgeStyle;rounded=0;orthogonalLoop=1;jettySize=auto;html=1;" edge="1" parent="T01o5Uwq3xA-ir8Dq9qK-4" source="T01o5Uwq3xA-ir8Dq9qK-10" target="T01o5Uwq3xA-ir8Dq9qK-18">
          <mxGeometry relative="1" as="geometry">
            <Array as="points">
              <mxPoint x="129" y="80" />
            </Array>
          </mxGeometry>
        </mxCell>
        <mxCell id="T01o5Uwq3xA-ir8Dq9qK-32" value="push image" style="edgeLabel;html=1;align=center;verticalAlign=middle;resizable=0;points=[];" vertex="1" connectable="0" parent="T01o5Uwq3xA-ir8Dq9qK-29">
          <mxGeometry x="-0.0378" y="-1" relative="1" as="geometry">
            <mxPoint as="offset" />
          </mxGeometry>
        </mxCell>
        <mxCell id="T01o5Uwq3xA-ir8Dq9qK-21" style="edgeStyle=orthogonalEdgeStyle;rounded=0;orthogonalLoop=1;jettySize=auto;html=1;" edge="1" parent="1" source="T01o5Uwq3xA-ir8Dq9qK-5">
          <mxGeometry relative="1" as="geometry">
            <mxPoint x="-80" y="470" as="targetPoint" />
          </mxGeometry>
        </mxCell>
        <mxCell id="T01o5Uwq3xA-ir8Dq9qK-30" value="commit" style="edgeLabel;html=1;align=center;verticalAlign=middle;resizable=0;points=[];" vertex="1" connectable="0" parent="T01o5Uwq3xA-ir8Dq9qK-21">
          <mxGeometry x="-0.2871" relative="1" as="geometry">
            <mxPoint as="offset" />
          </mxGeometry>
        </mxCell>
        <mxCell id="T01o5Uwq3xA-ir8Dq9qK-5" value="&lt;font style=&quot;font-size: 10px;&quot;&gt;&lt;b&gt;Developers&lt;/b&gt;&lt;/font&gt;" style="sketch=0;outlineConnect=0;gradientColor=none;fontColor=#545B64;strokeColor=none;fillColor=#879196;dashed=0;verticalLabelPosition=bottom;verticalAlign=top;align=center;html=1;fontSize=12;fontStyle=0;aspect=fixed;shape=mxgraph.aws4.illustration_users;pointerEvents=1" vertex="1" parent="1">
          <mxGeometry x="-270" y="420" width="100" height="100" as="geometry" />
        </mxCell>
      </root>
    </mxGraphModel>
  </diagram>
</mxfile>
